<svg xmlns="http://www.w3.org/2000/svg" version="1.1" xmlns:xlink="http://www.w3.org/1999/xlink" xmlns:svgjs="http://svgjs.dev/svgjs" width="1500" height="1500" viewBox="0 0 1500 1500"><rect width="1500" height="1500" fill="#ffffff"></rect><g transform="matrix(0.6666666666666666,0,0,0.6666666666666666,249.78425655976673,249.78425655976673)"><svg viewBox="0 0 343 343" data-background-color="#61777f" preserveAspectRatio="xMidYMid meet" height="1500" width="1500" xmlns="http://www.w3.org/2000/svg" xmlns:xlink="http://www.w3.org/1999/xlink"><g id="tight-bounds" transform="matrix(1,0,0,1,0.07400000000001228,0.07400000000001228)"><svg viewBox="0 0 342.8515585177538 342.8515585177538" height="342.8515585177538" width="342.8515585177538"><g><svg></svg></g><g><svg viewBox="0 0 342.8515585177538 342.8515585177538" height="342.8515585177538" width="342.8515585177538"><g><path d="M0 171.426c0-94.676 76.75-171.426 171.426-171.426 94.676 0 171.426 76.75 171.426 171.426 0 94.676-76.75 171.426-171.426 171.426-94.676 0-171.426-76.75-171.426-171.426zM171.426 338.207c92.111 0 166.782-74.671 166.781-166.781 0-92.111-74.671-166.782-166.781-166.782-92.111 0-166.782 74.671-166.782 166.782 0 92.111 74.671 166.782 166.782 166.781z" data-fill-palette-color="tertiary" fill="#000000" stroke="transparent"></path><ellipse rx="164.56874808852183" ry="164.56874808852183" cx="171.4257792588769" cy="171.4257792588769" fill="#000000" stroke="transparent" stroke-width="0" fill-opacity="1" data-fill-palette-color="tertiary"></ellipse></g><g transform="matrix(1,0,0,1,64.84655864529836,104.01199443743177)"><svg viewBox="0 0 213.15844122715708 134.82756964289027" height="134.82756964289027" width="213.15844122715708"><g><svg viewBox="0 0 213.15844122715708 134.82756964289027" height="134.82756964289027" width="213.15844122715708"><g><svg viewBox="0 0 213.15844122715714 134.8275696428903" height="134.82756964289027" width="213.15844122715708"><g transform="matrix(1,0,0,1,0,83.32884705313725)"><svg viewBox="0 0 213.15844122715714 51.498722589753044" height="51.498722589753044" width="213.15844122715714"><g id="textblocktransform"><svg viewBox="0 0 213.15844122715714 51.498722589753044" height="51.498722589753044" width="213.15844122715714" id="textblock"><g><svg viewBox="0 0 213.15844122715714 51.498722589753044" height="51.498722589753044" width="213.15844122715714"><g transform="matrix(1,0,0,1,0,0)"><svg width="213.15844122715714" viewBox="1.9071428571428568 -40.34 168.33285714285716 40.68000000000001" height="51.498722589753044" data-palette-color="#61777f"><path d="M8.6 0.34L8.6 0.34Q5.4 0.34 3.76-1.11 2.11-2.55 2-6.25L2-6.25Q1.95-7.64 1.94-9.04 1.94-10.44 1.97-11.81 2-13.18 2.08-14.45L2.08-14.45 2.74-14.45Q2.68-13.14 2.64-11.86 2.6-10.59 2.61-9.22 2.61-7.86 2.66-6.26L2.66-6.26Q2.78-2.91 4.21-1.56 5.65-0.21 8.6-0.21L8.6-0.21Q11.53-0.21 12.94-1.59 14.35-2.96 14.45-6.26L14.45-6.26Q14.5-7.49 14.51-8.49 14.53-9.49 14.52-10.59 14.51-11.7 14.46-13.24L14.46-13.24Q14.38-16.8 13.33-18.41 12.29-20.01 10.1-20.56L10.1-20.56 7.41-21.24Q6.48-21.46 5.87-21.94 5.26-22.41 4.95-23.49 4.64-24.58 4.59-26.64L4.59-26.64Q4.56-27.93 4.58-29.93 4.6-31.93 4.61-33.74L4.61-33.74Q4.65-36.23 5.59-37.17 6.53-38.11 8.58-38.11L8.58-38.11Q10.53-38.11 11.38-37.12 12.23-36.13 12.31-33.69L12.31-33.69Q12.35-32.5 12.34-30.43 12.33-28.36 12.28-26.13L12.28-26.13 11.61-26.13Q11.66-28.41 11.68-30.45 11.69-32.49 11.65-33.66L11.65-33.66Q11.59-35.89 10.87-36.73 10.15-37.56 8.58-37.56L8.58-37.56Q6.76-37.56 6.04-36.71 5.31-35.85 5.28-33.71L5.28-33.71Q5.26-31.6 5.24-29.81 5.21-28.01 5.25-26.65L5.25-26.65Q5.29-24.8 5.53-23.84 5.76-22.88 6.26-22.46 6.76-22.05 7.58-21.85L7.58-21.85 10.25-21.19Q12.76-20.59 13.89-18.76 15.03-16.93 15.13-13.26L15.13-13.26Q15.16-12.04 15.18-11.02 15.19-10 15.18-8.89 15.18-7.78 15.11-6.24L15.11-6.24Q14.99-2.6 13.39-1.13 11.8 0.34 8.6 0.34ZM8.6-0.78L8.6-0.78Q6-0.78 4.71-1.99 3.43-3.2 3.33-6.29L3.33-6.29Q3.29-7.73 3.28-9.14 3.28-10.55 3.3-11.89 3.33-13.23 3.39-14.45L3.39-14.45 4.05-14.45Q3.99-13.26 3.96-12.04 3.93-10.83 3.93-9.43 3.94-8.03 3.99-6.29L3.99-6.29Q4.09-3.56 5.16-2.44 6.24-1.33 8.6-1.33L8.6-1.33Q10.96-1.33 11.99-2.48 13.03-3.63 13.13-6.3L13.13-6.3Q13.18-7.6 13.19-8.59 13.2-9.59 13.19-10.64 13.19-11.7 13.14-13.19L13.14-13.19Q13.09-15.31 12.73-16.54 12.36-17.76 11.64-18.38 10.91-18.99 9.79-19.26L9.79-19.26 7.08-19.94Q5.76-20.25 4.94-20.94 4.13-21.63 3.73-22.98 3.33-24.33 3.26-26.6L3.26-26.6Q3.24-27.48 3.24-28.78 3.24-30.08 3.26-31.43 3.28-32.77 3.29-33.77L3.29-33.77Q3.34-36.86 4.63-38.04 5.93-39.23 8.58-39.23L8.58-39.23Q11.19-39.23 12.36-37.98 13.54-36.73 13.64-33.74L13.64-33.74Q13.68-32.56 13.66-30.46 13.65-28.35 13.6-26.13L13.6-26.13 12.94-26.13Q12.99-28.24 13-30.36 13.01-32.49 12.98-33.71L12.98-33.71Q12.88-36.41 11.88-37.54 10.88-38.68 8.58-38.68L8.58-38.68Q6.18-38.68 5.09-37.59 4-36.51 3.95-33.76L3.95-33.76Q3.94-32.1 3.91-30.06 3.89-28.03 3.93-26.63L3.93-26.63Q3.98-24.46 4.33-23.24 4.67-22.01 5.39-21.43 6.11-20.85 7.24-20.56L7.24-20.56 9.94-19.91Q11.95-19.43 12.83-17.96 13.71-16.49 13.8-13.21L13.8-13.21Q13.84-11.94 13.85-10.89 13.86-9.85 13.85-8.77 13.84-7.69 13.79-6.29L13.79-6.29Q13.69-3.34 12.49-2.06 11.3-0.78 8.6-0.78ZM8.6-1.89L8.6-1.89Q6.56-1.89 5.65-2.88 4.74-3.88 4.65-6.33L4.65-6.33Q4.61-7.89 4.61-9.24 4.6-10.6 4.63-11.88 4.65-13.15 4.7-14.45L4.7-14.45 5.35-14.45Q5.3-13.04 5.28-11.79 5.25-10.55 5.26-9.25 5.28-7.95 5.31-6.35L5.31-6.35Q5.39-4.23 6.11-3.33 6.84-2.44 8.6-2.44L8.6-2.44Q10.28-2.44 11.01-3.33 11.74-4.21 11.8-6.36L11.8-6.36Q11.85-7.74 11.86-8.71 11.88-9.69 11.87-10.69 11.86-11.7 11.81-13.15L11.81-13.15Q11.78-15.04 11.51-16.01 11.25-16.99 10.75-17.39 10.25-17.8 9.47-17.99L9.47-17.99 6.75-18.64Q5.14-19.04 4.09-19.91 3.04-20.78 2.52-22.38 2-23.98 1.93-26.56L1.93-26.56Q1.89-28.09 1.92-30.06 1.95-32.02 1.98-33.83L1.98-33.83Q2.04-37.19 3.51-38.76 4.99-40.34 8.58-40.34L8.58-40.34Q11.74-40.34 13.29-38.88 14.85-37.41 14.96-33.79L14.96-33.79Q14.99-32.66 14.98-30.48 14.98-28.3 14.93-26.13L14.93-26.13 14.26-26.13Q14.33-28.34 14.33-30.46 14.34-32.58 14.3-33.75L14.3-33.75Q14.2-37.06 12.83-38.43 11.45-39.79 8.58-39.79L8.58-39.79Q5.43-39.79 4.06-38.41 2.7-37.02 2.64-33.79L2.64-33.79Q2.61-31.79 2.59-29.98 2.56-28.16 2.6-26.58L2.6-26.58Q2.66-24.15 3.13-22.68 3.59-21.2 4.53-20.43 5.46-19.65 6.91-19.29L6.91-19.29 9.64-18.61Q10.55-18.4 11.16-17.91 11.78-17.43 12.1-16.32 12.43-15.23 12.48-13.16L12.48-13.16Q12.51-11.8 12.53-10.79 12.54-9.79 12.53-8.78 12.51-7.76 12.46-6.35L12.46-6.35Q12.38-3.93 11.49-2.91 10.61-1.89 8.6-1.89ZM33.02 0L32.36 0 32.36-23.78Q32.36-25.69 31.93-27.03 31.5-28.36 30.42-29.06 29.34-29.76 27.37-29.76L27.37-29.76Q25.6-29.76 24.31-28.93 23.02-28.09 22.25-26.53L22.25-26.53 22.07-26.53 22.36-32.74 22.36-40 23.04-40 23.04-34.8 22.6-27.71 22.72-27.71Q23.48-28.96 24.71-29.66 25.93-30.35 27.55-30.35L27.55-30.35Q29.71-30.35 30.89-29.59 32.07-28.84 32.55-27.39 33.02-25.95 33.02-23.89L33.02-23.89 33.02 0ZM20.46 0L19.8 0 19.8-40 20.46-40 20.46 0ZM23.13 0L22.45 0 22.45-23.3Q22.45-24.48 22.93-25.53 23.41-26.59 24.39-27.25 25.37-27.91 26.87-27.91L26.87-27.91Q28.95-27.91 29.67-26.78 30.38-25.65 30.38-23.56L30.38-23.56 30.38 0 29.72 0 29.72-23.53Q29.72-25.29 29.13-26.31 28.55-27.33 26.79-27.33L26.79-27.33Q25.55-27.33 24.73-26.76 23.92-26.2 23.53-25.29 23.13-24.39 23.13-23.34L23.13-23.34 23.13 0ZM21.79 0L21.12 0 21.12-40 21.76-40 21.76-30.13 21.63-24.98 21.81-24.98Q22.43-26.93 23.81-28.05 25.18-29.18 27.21-29.15L27.21-29.15Q29.92-29.14 30.81-27.69 31.7-26.25 31.7-23.74L31.7-23.74 31.7 0 31.04 0 31.04-23.66Q31.04-26.03 30.2-27.29 29.37-28.56 27.01-28.56L27.01-28.56Q25.25-28.56 24.09-27.74 22.93-26.91 22.36-25.68 21.79-24.45 21.79-23.24L21.79-23.24 21.79 0ZM44.53 0.34L44.53 0.34Q41.18 0.34 39.68-1.19 38.17-2.71 38.05-6.13L38.05-6.13Q37.93-9.28 37.9-12.19 37.86-15.11 37.9-18 37.93-20.89 38.03-23.91L38.03-23.91Q38.18-27.49 39.78-28.91 41.37-30.34 44.53-30.34L44.53-30.34Q47.9-30.34 49.38-28.81 50.87-27.28 51.01-23.86L51.01-23.86Q51.18-19.15 51.18-14.88 51.17-10.61 51.01-6.09L51.01-6.09Q50.87-2.53 49.28-1.09 47.68 0.34 44.53 0.34ZM44.53-0.21L44.53-0.21Q47.3-0.21 48.75-1.49 50.21-2.78 50.35-6.09L50.35-6.09Q50.51-10.6 50.51-14.8 50.51-19 50.33-23.83L50.33-23.83Q50.23-26.89 48.93-28.34 47.63-29.79 44.53-29.79L44.53-29.79Q41.6-29.79 40.21-28.41 38.82-27.04 38.7-23.78L38.7-23.78Q38.6-21.09 38.56-18.26 38.52-15.43 38.56-12.4 38.6-9.38 38.71-6.1L38.71-6.1Q38.82-2.78 40.29-1.49 41.76-0.21 44.53-0.21ZM44.53-0.78L44.53-0.78Q41.9-0.78 40.68-2.04 39.47-3.3 39.36-6.25L39.36-6.25Q39.27-8.94 39.23-11.85 39.18-14.76 39.21-17.78 39.25-20.79 39.36-23.76L39.36-23.76Q39.47-26.76 40.71-27.99 41.96-29.23 44.53-29.23L44.53-29.23Q46.98-29.23 48.28-28.05 49.57-26.88 49.67-23.88L49.67-23.88Q49.78-20.84 49.82-17.92 49.86-15 49.83-12.11 49.8-9.21 49.7-6.24L49.7-6.24Q49.58-3.24 48.34-2.01 47.1-0.78 44.53-0.78ZM44.53-1.33L44.53-1.33Q46.75-1.33 47.83-2.43 48.92-3.54 49.03-6.25L49.03-6.25Q49.16-10.05 49.18-14.5 49.2-18.95 49.02-23.73L49.02-23.73Q48.92-26.49 47.81-27.58 46.71-28.68 44.53-28.68L44.53-28.68Q42.31-28.68 41.22-27.57 40.13-26.46 40.02-23.74L40.02-23.74Q39.93-21.19 39.89-18.36 39.85-15.53 39.88-12.48 39.91-9.44 40.02-6.25L40.02-6.25Q40.12-3.46 41.25-2.39 42.38-1.33 44.53-1.33ZM44.53-1.89L44.53-1.89Q42.72-1.89 41.75-2.83 40.77-3.78 40.68-6.26L40.68-6.26Q40.58-9.22 40.55-12.1 40.51-14.98 40.55-17.86 40.58-20.74 40.68-23.7L40.68-23.7Q40.77-26.09 41.68-27.1 42.6-28.11 44.53-28.11L44.53-28.11Q46.35-28.11 47.31-27.17 48.27-26.23 48.36-23.73L48.36-23.73Q48.51-19.35 48.51-14.92 48.52-10.49 48.36-6.29L48.36-6.29Q48.27-3.86 47.35-2.88 46.42-1.89 44.53-1.89ZM44.53-2.44L44.53-2.44Q46.15-2.44 46.89-3.34 47.63-4.25 47.7-6.31L47.7-6.31Q47.83-10.28 47.85-14.58 47.87-18.89 47.7-23.7L47.7-23.7Q47.63-25.86 46.84-26.71 46.05-27.56 44.53-27.56L44.53-27.56Q42.9-27.56 42.16-26.64 41.42-25.73 41.35-23.68L41.35-23.68Q41.25-20.78 41.21-17.99 41.17-15.2 41.21-12.33 41.25-9.46 41.35-6.29L41.35-6.29Q41.41-4.11 42.21-3.28 43.02-2.44 44.53-2.44ZM58.16 0L57.48 0 57.48-30 58.14-30 58.14-28.4 57.99-24.98 58.17-24.98Q58.81-26.85 60.18-27.86 61.56-28.88 63.63-28.88L63.63-28.88Q64.14-28.88 64.67-28.86 65.19-28.85 65.52-28.84L65.52-28.84 65.52-28.24Q65.17-28.26 64.61-28.27 64.06-28.28 63.52-28.28L63.52-28.28Q61.69-28.28 60.5-27.51 59.31-26.75 58.73-25.59 58.16-24.44 58.16-23.24L58.16-23.24 58.16 0ZM56.82 0L56.16 0 56.16-30 56.82-30 56.82 0ZM59.52 0L58.82 0 58.82-23.3Q58.82-25.09 59.94-26.36 61.07-27.64 63.27-27.64L63.27-27.64Q63.84-27.64 64.42-27.64 64.99-27.64 65.52-27.64L65.52-27.64 65.52-27.04Q64.99-27.04 64.41-27.04 63.83-27.04 63.27-27.04L63.27-27.04Q61.32-27.04 60.42-25.98 59.52-24.91 59.52-23.34L59.52-23.34 59.52 0ZM58.62-26.53L58.42-26.53 58.79-29.41 58.79-30 59.47-30 59.47-29.78 58.99-27.71 59.12-27.71Q59.79-28.86 61.12-29.46 62.44-30.06 63.88-30.06L63.88-30.06Q64.23-30.06 64.63-30.06 65.03-30.05 65.52-30.01L65.52-30.01 65.52-29.43Q65.09-29.45 64.7-29.46 64.31-29.48 63.92-29.48L63.92-29.48Q62.12-29.48 60.76-28.78 59.39-28.09 58.62-26.53L58.62-26.53ZM75.85-0.85L75.85-0.85Q72.89-0.85 71.97-2.04 71.05-3.24 71.05-5.73L71.05-5.73 71.05-28.23 67.69-28.23 67.69-28.81 71.05-28.81 71.05-38.5 71.73-38.5 71.73-28.81 77.59-28.81 77.59-28.23 71.73-28.23 71.73-5.73Q71.73-3.44 72.53-2.44 73.34-1.44 75.85-1.44L75.85-1.44Q76.38-1.44 76.95-1.48 77.52-1.53 78.09-1.61L78.09-1.61 78.09-1.04Q77.59-0.94 77.01-0.89 76.43-0.85 75.85-0.85ZM75.85 0.34L75.85 0.34Q72.35 0.34 71.04-1.07 69.73-2.49 69.73-5.73L69.73-5.73 69.73-27.04 67.69-27.04 67.69-27.64 70.39-27.64 70.39-5.73Q70.39-2.88 71.49-1.56 72.59-0.25 75.85-0.25L75.85-0.25Q76.43-0.25 77.01-0.3 77.59-0.35 78.09-0.48L78.09-0.48 78.09 0.1Q77.2 0.34 75.85 0.34ZM75.85-2.02L75.85-2.02Q73.69-2.02 73.04-2.87 72.39-3.71 72.39-5.73L72.39-5.73 72.39-27.64 77.59-27.64 77.59-27.04 73.05-27.04 73.05-5.73Q73.05-3.99 73.56-3.3 74.07-2.61 75.85-2.61L75.85-2.61Q76.52-2.61 77.1-2.65 77.68-2.69 78.09-2.76L78.09-2.76 78.09-2.2Q77.62-2.11 77.04-2.07 76.47-2.02 75.85-2.02ZM70.39-29.41L67.69-29.41 67.69-30 69.73-30 69.73-38.5 70.39-38.5 70.39-29.41ZM77.59-29.41L72.39-29.41 72.39-38.5 73.05-38.5 73.05-30 77.59-30 77.59-29.41ZM91.76 0L91.09 0 91.09-40 97.19-40 99.51-23.73 102.56-2.79 103.16-2.79 102.62-23.85 102.47-40 103.15-40 103.29-23.85 103.8-2.23 102.02-2.23 96.6-39.44 91.76-39.44 91.76 0ZM93.09 0L92.42 0 92.42-17.13 92.19-38.89 96.07-38.89 101.56-1.68 104.22-1.68 103.89-23.85 103.86-40 104.54-40 104.56-23.85 104.76-1.11 101-1.11 95.46-38.33 92.77-38.33 93.09-17.13 93.09 0ZM94.46 0L93.8 0 93.69-17.13 93.25-37.77 94.97-37.77 100.42-0.54 105.2-0.54 105.2-40 105.86-40 105.86 0 99.79 0 97.34-17.19 94.46-37.21 93.89-37.21 94.35-17.13 94.46 0ZM117.45 0.34L117.45 0.34Q114.1 0.34 112.59-1.19 111.08-2.71 110.96-6.13L110.96-6.13Q110.85-9.28 110.81-12.19 110.77-15.11 110.81-18 110.85-20.89 110.95-23.91L110.95-23.91Q111.1-27.49 112.69-28.91 114.28-30.34 117.45-30.34L117.45-30.34Q120.81-30.34 122.3-28.81 123.78-27.28 123.92-23.86L123.92-23.86Q124.1-19.15 124.09-14.88 124.08-10.61 123.92-6.09L123.92-6.09Q123.78-2.53 122.19-1.09 120.6 0.34 117.45 0.34ZM117.45-0.21L117.45-0.21Q120.21-0.21 121.66-1.49 123.12-2.78 123.26-6.09L123.26-6.09Q123.42-10.6 123.42-14.8 123.42-19 123.25-23.83L123.25-23.83Q123.15-26.89 121.85-28.34 120.55-29.79 117.45-29.79L117.45-29.79Q114.51-29.79 113.12-28.41 111.73-27.04 111.61-23.78L111.61-23.78Q111.51-21.09 111.47-18.26 111.43-15.43 111.47-12.4 111.51-9.38 111.62-6.1L111.62-6.1Q111.73-2.78 113.2-1.49 114.67-0.21 117.45-0.21ZM117.45-0.78L117.45-0.78Q114.81-0.78 113.6-2.04 112.38-3.3 112.27-6.25L112.27-6.25Q112.18-8.94 112.14-11.85 112.1-14.76 112.13-17.78 112.16-20.79 112.27-23.76L112.27-23.76Q112.38-26.76 113.63-27.99 114.87-29.23 117.45-29.23L117.45-29.23Q119.9-29.23 121.19-28.05 122.48-26.88 122.58-23.88L122.58-23.88Q122.7-20.84 122.73-17.92 122.77-15 122.74-12.11 122.71-9.21 122.61-6.24L122.61-6.24Q122.5-3.24 121.25-2.01 120.01-0.78 117.45-0.78ZM117.45-1.33L117.45-1.33Q119.66-1.33 120.75-2.43 121.83-3.54 121.95-6.25L121.95-6.25Q122.07-10.05 122.09-14.5 122.11-18.95 121.93-23.73L121.93-23.73Q121.83-26.49 120.73-27.58 119.62-28.68 117.45-28.68L117.45-28.68Q115.22-28.68 114.13-27.57 113.05-26.46 112.93-23.74L112.93-23.74Q112.85-21.19 112.8-18.36 112.76-15.53 112.79-12.48 112.82-9.44 112.93-6.25L112.93-6.25Q113.03-3.46 114.16-2.39 115.3-1.33 117.45-1.33ZM117.45-1.89L117.45-1.89Q115.63-1.89 114.66-2.83 113.68-3.78 113.6-6.26L113.6-6.26Q113.5-9.22 113.46-12.1 113.42-14.98 113.46-17.86 113.5-20.74 113.6-23.7L113.6-23.7Q113.68-26.09 114.6-27.1 115.51-28.11 117.45-28.11L117.45-28.11Q119.26-28.11 120.22-27.17 121.18-26.23 121.27-23.73L121.27-23.73Q121.42-19.35 121.43-14.92 121.43-10.49 121.27-6.29L121.27-6.29Q121.18-3.86 120.26-2.88 119.33-1.89 117.45-1.89ZM117.45-2.44L117.45-2.44Q119.06-2.44 119.8-3.34 120.55-4.25 120.61-6.31L120.61-6.31Q120.75-10.28 120.76-14.58 120.78-18.89 120.61-23.7L120.61-23.7Q120.55-25.86 119.75-26.71 118.96-27.56 117.45-27.56L117.45-27.56Q115.81-27.56 115.07-26.64 114.33-25.73 114.26-23.68L114.26-23.68Q114.16-20.78 114.12-17.99 114.08-15.2 114.12-12.33 114.16-9.46 114.26-6.29L114.26-6.29Q114.32-4.11 115.13-3.28 115.93-2.44 117.45-2.44ZM135.67-0.85L135.67-0.85Q132.71-0.85 131.79-2.04 130.87-3.24 130.87-5.73L130.87-5.73 130.87-28.23 127.51-28.23 127.51-28.81 130.87-28.81 130.87-38.5 131.54-38.5 131.54-28.81 137.41-28.81 137.41-28.23 131.54-28.23 131.54-5.73Q131.54-3.44 132.35-2.44 133.16-1.44 135.67-1.44L135.67-1.44Q136.19-1.44 136.76-1.48 137.33-1.53 137.91-1.61L137.91-1.61 137.91-1.04Q137.41-0.94 136.82-0.89 136.24-0.85 135.67-0.85ZM135.67 0.34L135.67 0.34Q132.17 0.34 130.86-1.07 129.54-2.49 129.54-5.73L129.54-5.73 129.54-27.04 127.51-27.04 127.51-27.64 130.21-27.64 130.21-5.73Q130.21-2.88 131.31-1.56 132.41-0.25 135.67-0.25L135.67-0.25Q136.24-0.25 136.82-0.3 137.41-0.35 137.91-0.48L137.91-0.48 137.91 0.1Q137.02 0.34 135.67 0.34ZM135.67-2.02L135.67-2.02Q133.51-2.02 132.86-2.87 132.21-3.71 132.21-5.73L132.21-5.73 132.21-27.64 137.41-27.64 137.41-27.04 132.87-27.04 132.87-5.73Q132.87-3.99 133.37-3.3 133.88-2.61 135.67-2.61L135.67-2.61Q136.33-2.61 136.91-2.65 137.49-2.69 137.91-2.76L137.91-2.76 137.91-2.2Q137.43-2.11 136.86-2.07 136.28-2.02 135.67-2.02ZM130.21-29.41L127.51-29.41 127.51-30 129.54-30 129.54-38.5 130.21-38.5 130.21-29.41ZM137.41-29.41L132.21-29.41 132.21-38.5 132.87-38.5 132.87-30 137.41-30 137.41-29.41ZM147.67 0.34L147.67 0.34Q144.43 0.34 142.86-1.01 141.29-2.35 141.18-5.73L141.18-5.73Q141.13-7.56 141.1-9.91 141.07-12.25 141.07-14.78 141.07-17.3 141.1-19.74 141.13-22.18 141.19-24.2L141.19-24.2Q141.3-27.46 142.8-28.9 144.29-30.34 147.64-30.34L147.64-30.34Q150.74-30.34 152.25-28.99 153.75-27.64 153.89-24.29L153.89-24.29Q153.93-23.63 153.95-22.57 153.97-21.51 153.97-20.16 153.97-18.81 153.94-17.24 153.92-15.68 153.84-14L153.84-14 144.38-14Q144.38-12.54 144.39-11.16 144.4-9.78 144.43-8.47 144.45-7.18 144.49-5.94L144.49-5.94Q144.55-4 145.24-3.22 145.93-2.44 147.67-2.44L147.67-2.44Q149.27-2.44 149.88-3.16 150.49-3.89 150.58-5.89L150.58-5.89Q150.62-6.69 150.6-7.84 150.59-8.99 150.53-10.3L150.53-10.3 151.19-10.3Q151.25-8.93 151.27-7.81 151.28-6.7 151.24-5.85L151.24-5.85Q151.15-3.59 150.37-2.74 149.58-1.89 147.67-1.89L147.67-1.89Q145.6-1.89 144.74-2.78 143.88-3.66 143.82-5.89L143.82-5.89Q143.79-6.99 143.77-8.49 143.74-10 143.73-11.59 143.72-13.19 143.72-14.55L143.72-14.55 153.22-14.55Q153.27-16.1 153.28-17.57 153.3-19.04 153.3-20.31 153.3-21.59 153.28-22.6 153.27-23.61 153.23-24.28L153.23-24.28Q153.09-27.41 151.7-28.6 150.32-29.79 147.64-29.79L147.64-29.79Q144.57-29.79 143.26-28.44 141.95-27.1 141.85-24.16L141.85-24.16Q141.79-22.11 141.76-19.71 141.73-17.3 141.73-14.81 141.73-12.33 141.76-10 141.79-7.68 141.84-5.78L141.84-5.78Q141.94-2.69 143.33-1.45 144.72-0.21 147.67-0.21L147.67-0.21Q150.58-0.21 151.83-1.46 153.09-2.71 153.23-5.76L153.23-5.76Q153.25-6.31 153.26-7.05 153.27-7.79 153.25-8.62 153.23-9.45 153.18-10.3L153.18-10.3 153.84-10.3Q153.9-9.15 153.92-7.93 153.94-6.7 153.89-5.73L153.89-5.73Q153.75-2.44 152.33-1.05 150.92 0.34 147.67 0.34ZM147.67-0.78L147.67-0.78Q144.99-0.78 143.79-1.9 142.59-3.03 142.5-5.8L142.5-5.8Q142.44-7.81 142.42-10.22 142.39-12.63 142.39-15.13 142.39-17.64 142.42-19.96 142.45-22.29 142.5-24.11L142.5-24.11Q142.6-26.96 143.83-28.09 145.07-29.23 147.64-29.23L147.64-29.23Q150.04-29.23 151.25-28.16 152.45-27.1 152.57-24.25L152.57-24.25Q152.6-23.51 152.63-22.16 152.65-20.8 152.64-18.99 152.63-17.19 152.57-15.11L152.57-15.11 143.05-15.11Q143.05-12.46 143.07-10.39 143.09-8.31 143.13-5.85L143.13-5.85Q143.17-3.4 144.17-2.36 145.18-1.33 147.67-1.33L147.67-1.33Q149.89-1.33 150.84-2.29 151.79-3.26 151.9-5.81L151.9-5.81Q151.94-6.66 151.93-7.82 151.92-8.97 151.85-10.3L151.85-10.3 152.52-10.3Q152.58-9.04 152.59-7.86 152.6-6.69 152.57-5.79L152.57-5.79Q152.44-2.99 151.35-1.88 150.27-0.78 147.67-0.78ZM143.05-15.66L143.05-15.66 151.92-15.66Q151.97-17.48 151.97-19.16 151.98-20.85 151.96-22.18 151.94-23.51 151.9-24.23L151.9-24.23Q151.8-26.74 150.78-27.71 149.77-28.68 147.64-28.68L147.64-28.68Q145.38-28.68 144.31-27.67 143.24-26.66 143.17-24.09L143.17-24.09Q143.12-22.61 143.09-20.29 143.07-17.96 143.05-15.66ZM151.25-16.23L143.72-16.23Q143.73-17.34 143.73-18.63 143.74-19.93 143.77-21.31 143.79-22.69 143.83-24.05L143.83-24.05Q143.9-26.33 144.78-27.22 145.67-28.11 147.64-28.11L147.64-28.11Q149.52-28.11 150.33-27.24 151.15-26.38 151.24-24.19L151.24-24.19Q151.27-23.58 151.29-22.41 151.32-21.24 151.31-19.66 151.3-18.07 151.25-16.23L151.25-16.23ZM144.39-16.78L144.39-16.78 150.6-16.78Q150.64-18.41 150.65-19.89 150.65-21.36 150.63-22.48 150.6-23.6 150.58-24.16L150.58-24.16Q150.49-26.1 149.82-26.83 149.15-27.56 147.64-27.56L147.64-27.56Q145.97-27.56 145.26-26.79 144.55-26.01 144.49-24.03L144.49-24.03Q144.47-22.94 144.44-21.79 144.42-20.64 144.4-19.39 144.39-18.15 144.39-16.78ZM163.93 0.34L163.93 0.34Q160.85 0.34 159.46-1.06 158.06-2.46 157.95-5.73L157.95-5.73Q157.93-6.84 157.92-8.02 157.91-9.2 157.98-10.3L157.98-10.3 158.59-10.3Q158.54-9.25 158.54-8.01 158.54-6.76 158.56-5.76L158.56-5.76Q158.66-2.79 159.91-1.5 161.15-0.21 163.93-0.21L163.93-0.21Q166.94-0.21 168.2-1.52 169.46-2.83 169.55-5.66L169.55-5.66Q169.59-6.31 169.59-6.86 169.6-7.41 169.59-7.97 169.59-8.53 169.59-9.19L169.59-9.19Q169.59-12.04 168.53-13.45 167.46-14.86 165.26-15.66L165.26-15.66 163.45-16.31Q162.34-16.71 161.72-17.19 161.1-17.68 160.83-18.63 160.55-19.58 160.46-21.38L160.46-21.38Q160.44-22.05 160.43-22.71 160.43-23.36 160.46-24.16L160.46-24.16Q160.56-26.28 161.37-27.19 162.18-28.11 164.05-28.11L164.05-28.11Q165.83-28.11 166.66-27.23 167.49-26.34 167.54-24.2L167.54-24.2Q167.56-23.5 167.58-22.33 167.59-21.16 167.53-19.78L167.53-19.78 166.91-19.78Q166.98-21.11 166.96-22.21 166.95-23.3 166.93-24.18L166.93-24.18Q166.89-26.03 166.19-26.79 165.5-27.56 164.05-27.56L164.05-27.56Q162.53-27.56 161.85-26.78 161.18-25.99 161.11-24.16L161.11-24.16Q161.09-23.41 161.08-22.83 161.08-22.24 161.11-21.38L161.11-21.38Q161.19-19.74 161.43-18.89 161.66-18.04 162.19-17.62 162.73-17.2 163.64-16.86L163.64-16.86 165.43-16.2Q166.89-15.68 167.97-14.88 169.05-14.09 169.64-12.74 170.24-11.4 170.24-9.19L170.24-9.19Q170.24-8.51 170.24-7.96 170.24-7.4 170.24-6.85 170.24-6.3 170.2-5.65L170.2-5.65Q170.09-2.59 168.72-1.13 167.35 0.34 163.93 0.34ZM163.93-0.78L163.93-0.78Q161.39-0.78 160.33-1.98 159.26-3.19 159.19-5.78L159.19-5.78Q159.16-6.85 159.15-7.91 159.14-8.97 159.2-10.3L159.2-10.3 159.83-10.3Q159.75-8.95 159.77-7.79 159.79-6.64 159.8-5.8L159.8-5.8Q159.88-3.41 160.83-2.37 161.79-1.33 163.93-1.33L163.93-1.33Q166.31-1.33 167.24-2.41 168.18-3.5 168.26-5.68L168.26-5.68Q168.31-6.65 168.31-7.42 168.3-8.19 168.3-9.19L168.3-9.19Q168.3-11.66 167.47-12.81 166.64-13.96 164.93-14.56L164.93-14.56 163.06-15.21Q161.66-15.71 160.84-16.35 160.03-16.99 159.64-18.14 159.26-19.3 159.18-21.36L159.18-21.36Q159.14-22.26 159.15-22.84 159.16-23.41 159.18-24.18L159.18-24.18Q159.23-26.81 160.32-28.02 161.41-29.23 164.05-29.23L164.05-29.23Q166.51-29.23 167.6-28.08 168.69-26.93 168.76-24.26L168.76-24.26Q168.79-23.34 168.8-22.25 168.81-21.16 168.75-19.78L168.75-19.78 168.14-19.78Q168.2-21.24 168.19-22.33 168.18-23.43 168.15-24.26L168.15-24.26Q168.09-26.65 167.11-27.66 166.14-28.68 164.05-28.68L164.05-28.68Q161.79-28.68 160.83-27.61 159.86-26.54 159.83-24.18L159.83-24.18Q159.81-23.38 159.8-22.83 159.79-22.28 159.83-21.36L159.83-21.36Q159.91-19.36 160.26-18.31 160.61-17.25 161.34-16.72 162.06-16.19 163.25-15.76L163.25-15.76 165.09-15.1Q167.06-14.41 168-13.14 168.94-11.86 168.94-9.19L168.94-9.19Q168.94-8.19 168.94-7.41 168.95-6.64 168.91-5.66L168.91-5.66Q168.81-3.15 167.72-1.96 166.63-0.78 163.93-0.78ZM163.93-1.89L163.93-1.89Q162.18-1.89 161.33-2.78 160.48-3.66 160.41-5.84L160.41-5.84Q160.4-6.79 160.38-7.94 160.36-9.09 160.43-10.3L160.43-10.3 161.04-10.3Q160.99-9.29 160.99-8.12 161-6.95 161.03-5.88L161.03-5.88Q161.06-4.04 161.75-3.24 162.44-2.44 163.93-2.44L163.93-2.44Q165.59-2.44 166.24-3.26 166.9-4.08 166.98-5.7L166.98-5.7Q167.03-6.64 167.01-7.41 167-8.19 167-9.19L167-9.19Q167-11.26 166.39-12.15 165.79-13.04 164.58-13.46L164.58-13.46 162.66-14.13Q161.11-14.66 160.07-15.43 159.03-16.2 158.48-17.59 157.94-18.98 157.89-21.35L157.89-21.35Q157.85-22.33 157.86-22.99 157.88-23.66 157.89-24.19L157.89-24.19Q157.94-27.43 159.34-28.88 160.74-30.34 164.05-30.34L164.05-30.34Q167.11-30.34 168.5-28.95 169.89-27.56 170-24.31L170-24.31Q170.03-23.39 170.03-22.16 170.04-20.93 169.98-19.78L169.98-19.78 169.36-19.78Q169.43-20.84 169.42-22.06 169.41-23.29 169.39-24.28L169.39-24.28Q169.29-27.23 168.04-28.51 166.8-29.79 164.05-29.79L164.05-29.79Q161.09-29.79 159.84-28.46 158.59-27.13 158.53-24.19L158.53-24.19Q158.53-23.39 158.51-22.82 158.5-22.25 158.53-21.35L158.53-21.35Q158.61-19.14 159.06-17.87 159.5-16.6 160.43-15.89 161.36-15.19 162.86-14.68L162.86-14.68 164.75-14.01Q166.41-13.44 167.03-12.35 167.65-11.26 167.65-9.19L167.65-9.19Q167.65-8.64 167.66-8.08 167.66-7.53 167.66-6.94 167.65-6.36 167.63-5.69L167.63-5.69Q167.55-3.74 166.73-2.81 165.91-1.89 163.93-1.89Z" opacity="1" transform="matrix(1,0,0,1,0,0)" fill="#ffffff" class="wordmark-text-0" data-fill-palette-color="quaternary" id="text-0"></path></svg></g></svg></g></svg></g></svg></g><g transform="matrix(1,0,0,1,70.9936033040592,0)"><svg viewBox="0 0 71.17123461903871 71.17123461903871" height="71.17123461903871" width="71.17123461903871"><g><svg xmlns="http://www.w3.org/2000/svg" xmlns:xlink="http://www.w3.org/1999/xlink" version="1.1" x="0" y="0" viewBox="5 5 90 90" enable-background="new 0 0 100 100" xml:space="preserve" height="71.17123461903871" width="71.17123461903871" class="icon-icon-0" data-fill-palette-color="quaternary" id="icon-0"><path d="M94.527 5H89.7h-1.002l-0.016 0.938C88.66 7.336 87.666 8.28 86.266 8.28s-2.394-0.929-2.416-2.326L83.833 5h-1.002-2.244-1.002l-0.016 0.938c-0.022 1.397-1.016 2.342-2.416 2.342-1.401 0-2.394-0.928-2.417-2.326L74.72 5h-1.002-2.244-1.002l-0.016 0.938C70.433 7.336 69.44 8.28 68.039 8.28c-1.4 0-2.394-0.928-2.416-2.326L65.607 5h-1.002H62.36h-1.002l-0.016 0.938C61.32 7.336 60.326 8.28 58.926 8.28c-1.401 0-2.394-0.929-2.417-2.326L56.493 5h-1.002-2.244-1.002l-0.016 0.938c-0.022 1.397-1.016 2.342-2.417 2.342-1.4 0-2.394-0.928-2.417-2.326L47.38 5h-1.002-2.244-1.002l-0.016 0.938C43.094 7.335 42.1 8.28 40.7 8.28c-1.401 0-2.394-0.928-2.417-2.326L38.267 5h-1.002H35.02h-1.002l-0.016 0.938C33.98 7.336 32.986 8.28 31.585 8.28s-2.394-0.929-2.417-2.326L29.153 5h-1.002-2.244-1.002l-0.016 0.938c-0.022 1.397-1.016 2.342-2.417 2.342-1.4 0-2.394-0.928-2.416-2.326L20.04 5h-1.002-2.244-1.002l-0.016 0.938C15.753 7.335 14.76 8.28 13.359 8.28s-2.394-0.928-2.417-2.326L10.926 5H9.924h-3.76H5v0.891 87.963V95h1.164 88.364H95v-1.146V5.891 5H94.527zM87 74H13v-1h74V74zM87 65H13v-1h74V65zM87 56H13v-1h74V56zM87 46H13v-1h74V46zM87 37H13v-1h74V37zM87 28H13v-1h74V28z" fill="#ffffff" data-fill-palette-color="quaternary"></path></svg></g></svg></g><g></g></svg></g></svg></g></svg></g></svg></g><defs></defs></svg><rect width="342.8515585177538" height="342.8515585177538" fill="none" stroke="none" visibility="hidden"></rect></g></svg></g></svg>